# File created by Blade
# Date/Time:  Thu Jan 22 19:49:10 2015
#---------------------------------------------------------
:version 1.10
:name HOM
:units
  mass 1.0
  length 1.000000
  angle deg
:documentation
     Acclaim Skeleton File
:root
   axis xyz
   order TX TY TZ RX RY RZ
   position 0.000000 0.000000 0.000000
   orientation 0 0 0
:bonedata
   begin
      id 1
      name RightUpLeg_dum
      direction -1.000000 0.000000 0.000000
      length 4.478084
      axis 0.0 0.0 0.0 xyz
   end
   begin
      id 2
      name LeftUpLeg_dum
      direction 1.000000 0.000000 0.000000
      length 4.478084
      axis 0.0 0.0 0.0 xyz
   end
   begin
      id 3
      name Spine_dum
      direction 0.000000 1.000000 0.000000
      length 6.068208
      axis 0.0 0.0 0.0 xyz
   end
   begin
      id 4
      name RightUpLeg
      direction 0.000000 -1.000000 0.000000
      length 16.405774
      axis 0.0 0.0 0.0 xyz
      dof rx ry rz
   end
   begin
      id 5
      name RightLeg
      direction 0.000000 -1.000000 0.000000
      length 14.644143
      axis 0.0 0.0 0.0 xyz
      dof rx ry rz
   end
   begin
      id 6
      name RightFoot
      direction 0.000000 -0.258819 0.965926
      length 5.806150
      axis 15.0 0.0 0.0 xyz
      dof rx ry rz
   end
   begin
      id 7
      name RightToeBase
      direction 0.000000 0.000000 1.000000
      length 2.952750
      axis 0.0 0.0 0.0 xyz
      dof rx ry rz
   end
   begin
      id 8
      name LeftUpLeg
      direction 0.000000 -1.000000 0.000000
      length 16.405774
      axis 0.0 0.0 0.0 xyz
      dof rx ry rz
   end
   begin
      id 9
      name LeftLeg
      direction 0.000000 -1.000000 0.000000
      length 14.644143
      axis 0.0 0.0 0.0 xyz
      dof rx ry rz
   end
   begin
      id 10
      name LeftFoot
      direction 0.000000 -0.258819 0.965926
      length 5.806150
      axis 15.0 0.0 0.0 xyz
      dof rx ry rz
   end
   begin
      id 11
      name LeftToeBase
      direction 0.000000 0.000000 1.000000
      length 2.952750
      axis 0.0 0.0 0.0 xyz
      dof rx ry rz
   end
   begin
      id 12
      name Spine
      direction 0.000000 1.000000 0.000000
      length 0.000000
      axis 0.0 0.0 0.0 xyz
      dof rx ry rz
   end
   begin
      id 13
      name Spine_dum1
      direction 0.000000 1.000000 0.000000
      length 10.013923
      axis 0.0 0.0 0.0 xyz
   end
   begin
      id 14
      name Spine_dum2
      direction 0.000000 1.000000 0.000000
      length 10.013923
      axis 0.0 0.0 0.0 xyz
   end
   begin
      id 15
      name Spine_dum3
      direction 0.000000 1.000000 0.000000
      length 15.777476
      axis 0.0 0.0 0.0 xyz
   end
   begin
      id 16
      name RightShoulder
      direction -1.000000 0.000000 0.000000
      length 7.190220
      axis 0.0 0.0 90.0 xyz
      dof rx ry rz
   end
   begin
      id 17
      name RightArm
      direction -1.000000 0.000000 0.000000
      length 10.177469
      axis 0.0 0.0 90.0 xyz
      dof rx ry rz
   end
   begin
      id 18
      name RightForeArm
      direction -1.000000 0.000000 0.000000
      length 8.392114
      axis 0.0 0.0 90.0 xyz
      dof ry rz rx
   end
   begin
      id 19
      name RightHand
      direction -1.000000 0.000000 0.000000
      length 0.000000
      axis 0.0 0.0 90.0 xyz
      dof rx ry rz
   end
   begin
      id 20
      name RightHand_dum1
      direction -1.000000 0.000000 0.000000
      length 3.937000
      axis 0.0 0.0 90.0 xyz
   end
   begin
      id 21
      name RightHand_dum2
      direction 0.000000 0.000000 0.000000
      length 0.000000
      axis 0.0 0.0 90.0 xyz
   end
   begin
      id 22
      name RightHandThumb1
      direction 0.000000 0.000000 1.000000
      length 3.937000
      axis 0.0 0.0 90.0 xyz
      dof rx rz ry
   end
   begin
      id 23
      name LeftShoulder
      direction 1.000000 0.000000 0.000000
      length 7.190220
      axis 0.0 0.0 -90.0 xyz
      dof rx ry rz
   end
   begin
      id 24
      name LeftArm
      direction 1.000000 0.000000 0.000000
      length 10.177469
      axis 0.0 0.0 -90.0 xyz
      dof rx ry rz
   end
   begin
      id 25
      name LeftForeArm
      direction 1.000000 0.000000 0.000000
      length 8.392114
      axis 0.0 0.0 -90.0 xyz
      dof ry rz rx
   end
   begin
      id 26
      name LeftHand
      direction 1.000000 0.000000 0.000000
      length 0.000000
      axis 0.0 0.0 -90.0 xyz
      dof rx ry rz
   end
   begin
      id 27
      name LeftHand_dum1
      direction 1.000000 0.000000 0.000000
      length 3.937000
      axis 0.0 0.0 -90.0 xyz
   end
   begin
      id 28
      name LeftHand_dum2
      direction 0.000000 0.000000 0.000000
      length 0.000000
      axis 0.0 0.0 -90.0 xyz
   end
   begin
      id 29
      name LeftHandThumb1
      direction 0.000000 0.000000 1.000000
      length 3.937000
      axis 0.0 0.0 -90.0 xyz
      dof rx rz ry
   end
   begin
      id 30
      name Head
      direction 0.000000 1.000000 0.000000
      length 4.527550
      axis 0.0 0.0 0.0 xyz
      dof rx ry rz
   end
:hierarchy
   begin
      root RightUpLeg_dum LeftUpLeg_dum Spine_dum
      RightUpLeg_dum RightUpLeg
      LeftUpLeg_dum LeftUpLeg
      Spine_dum Spine
      RightUpLeg RightLeg
      RightLeg RightFoot
      RightFoot RightToeBase
      LeftUpLeg LeftLeg
      LeftLeg LeftFoot
      LeftFoot LeftToeBase
      Spine Spine_dum1 Spine_dum2 Spine_dum3
      Spine_dum1 RightShoulder
      Spine_dum2 LeftShoulder
      Spine_dum3 Head
      RightShoulder RightArm
      RightArm RightForeArm
      RightForeArm RightHand
      RightHand RightHand_dum1 RightHand_dum2
      RightHand_dum2 RightHandThumb1
      LeftShoulder LeftArm
      LeftArm LeftForeArm
      LeftForeArm LeftHand
      LeftHand LeftHand_dum1 LeftHand_dum2
      LeftHand_dum2 LeftHandThumb1
   end

# File created by Blade
# Date/Time:  Thu Jan 22 19:49:01 2015
# Frame Rate: 120.000 fps
#------------------------------------------------------
:FULLY-SPECIFIED
:DEGREES
1
root -2.308165 33.103993 1.321803 9.509221 -4.012449 2.530565
RightUpLeg -1.819660 -4.350774 -1.383378
RightLeg -0.890066 -0.000000 0.000000
RightFoot -11.292190 -3.832501 0.230605
RightToeBase 2.084250 -0.000000 -0.000000
LeftUpLeg -1.375490 3.410282 0.114224
LeftLeg 0.674981 -0.000000 -0.000000
LeftFoot -11.463937 -0.118278 -14.092982
LeftToeBase 9.994341 -0.000000 -0.000000
Spine -10.685677 -1.309871 -1.527701
RightShoulder -20.697129 -14.109975 -24.439434
RightArm 20.122293 29.767458 45.682174
RightForeArm -11.196490 -0.000000 10.953123
RightHand 7.683143 -0.000000 5.816659
RightHandThumb1 -24.326973 -0.000000 -32.862282
LeftShoulder -24.229596 5.935783 29.540400
LeftArm 12.599098 -29.274825 -40.298739
LeftForeArm 20.188934 -0.000000 0.150388
LeftHand -4.184935 -0.000000 -9.553136
LeftHandThumb1 -26.253704 0.000000 33.147579
Head -7.138564 2.000290 0.246673
2
root -2.300895 33.103068 1.323132 9.511806 -4.023394 2.527460
RightUpLeg -1.823340 -4.364627 -1.388146
RightLeg -0.891869 -0.000000 0.000000
RightFoot -11.301320 -3.823082 0.205319
RightToeBase 2.075770 -0.000000 -0.000000
LeftUpLeg -1.380029 3.423064 0.099998
LeftLeg 0.691458 -0.000000 -0.000000
LeftFoot -11.499084 -0.114806 -14.087893
LeftToeBase 10.016281 -0.000000 -0.000000
Spine -10.698037 -1.298141 -1.528732
RightShoulder -20.721811 -14.142748 -24.416882
RightArm 20.136296 29.771796 45.702391
RightForeArm -11.214572 0.000000 10.964772
RightHand 7.691996 -0.000000 5.820875
RightHandThumb1 -24.326973 -0.000000 -32.862282
LeftShoulder -24.232479 5.951241 29.562690
LeftArm 12.583219 -29.261983 -40.267831
LeftForeArm 20.215186 0.000000 0.161788
LeftHand -4.176054 0.000000 -9.578548
LeftHandThumb1 -26.253704 0.000000 33.147579
Head -7.106981 2.011584 0.233407
3
root -2.294022 33.103334 1.324545 9.508960 -4.039934 2.529126
RightUpLeg -1.822472 -4.348182 -1.403713
RightLeg -0.888909 -0.000000 0.000000
RightFoot -11.305132 -3.830021 0.231441
RightToeBase 2.135733 -0.000000 -0.000000
LeftUpLeg -1.373857 3.452180 0.085696
LeftLeg 0.687789 -0.000000 -0.000000
LeftFoot -11.477276 -0.136812 -14.065787
LeftToeBase 9.984264 -0.000000 -0.000000
Spine -10.707269 -1.287447 -1.537789
RightShoulder -20.730212 -14.156102 -24.400385
RightArm 20.128440 29.800778 45.730567
RightForeArm -11.251077 -0.000000 10.977001
RightHand 7.719552 0.000000 5.819603
RightHandThumb1 -24.326973 -0.000000 -32.862282
LeftShoulder -24.241576 5.993214 29.564531
LeftArm 12.589374 -29.298150 -40.244889
LeftForeArm 20.231523 -0.000000 0.184536
LeftHand -4.212121 -0.000000 -9.565927
LeftHandThumb1 -26.253704 0.000000 33.147579
Head -7.068455 2.035890 0.231446
4
root -2.287227 33.102984 1.326011 9.508346 -4.053014 2.522549
RightUpLeg -1.819873 -4.335796 -1.409276
RightLeg -0.895679 -0.000000 0.000000
RightFoot -11.292620 -3.839566 0.248121
RightToeBase 2.146437 -0.000000 -0.000000
LeftUpLeg -1.368961 3.453338 0.075764
LeftLeg 0.694172 -0.000000 -0.000000
LeftFoot -11.509223 -0.122274 -14.075980
LeftToeBase 10.043463 -0.000000 -0.000000
Spine -10.717660 -1.272157 -1.527284
RightShoulder -20.747756 -14.167333 -24.396240
RightArm 20.114648 29.807903 45.747696
RightForeArm -11.277265 -0.000000 11.005433
RightHand 7.708657 0.000000 5.842644
RightHandThumb1 -24.326973 -0.000000 -32.862282
LeftShoulder -24.243861 5.986743 29.572243
LeftArm 12.561615 -29.273219 -40.195464
LeftForeArm 20.236015 -0.000000 0.177599
LeftHand -4.209104 -0.000000 -9.563062
LeftHandThumb1 -26.253704 0.000000 33.147579
Head -7.037989 2.041985 0.200598
5
root -2.280139 33.103408 1.326788 9.507235 -4.071883 2.518719
RightUpLeg -1.821567 -4.344436 -1.418728
RightLeg -0.898069 -0.000000 0.000000
RightFoot -11.293463 -3.798099 0.298161
RightToeBase 2.200519 -0.000000 -0.000000
LeftUpLeg -1.364517 3.476484 0.066639
LeftLeg 0.694479 -0.000000 -0.000000
LeftFoot -11.506048 -0.139625 -14.065878
LeftToeBase 10.039660 -0.000000 -0.000000
Spine -10.726806 -1.271834 -1.522203
RightShoulder -20.751253 -14.175188 -24.373052
RightArm 20.121372 29.795082 45.741969
RightForeArm -11.249296 -0.000000 11.000133
RightHand 7.658787 -0.000000 5.820111
RightHandThumb1 -24.326973 -0.000000 -32.862282
LeftShoulder -24.279304 6.024103 29.570000
LeftArm 12.589338 -29.291765 -40.188901
LeftForeArm 20.251516 -0.000000 0.174423
LeftHand -4.186001 -0.000000 -9.534610
LeftHandThumb1 -26.253704 0.000000 33.147579
Head -7.005598 2.081033 0.185721
